<?xml version="1.0" encoding="UTF-8"?>
<svg xmlns="http://www.w3.org/2000/svg" xmlns:xlink="http://www.w3.org/1999/xlink" width="1024pt" height="646pt" viewBox="0 0 1024 646" version="1.1">
<defs>
<clipPath id="clip1">
  <path d="M 354 399 L 372 399 L 372 423 L 354 423 Z M 354 399 "/>
</clipPath>
<clipPath id="clip2">
  <path d="M 321 422 L 414 422 L 414 491 L 321 491 Z M 321 422 "/>
</clipPath>
<clipPath id="clip3">
  <path d="M 117 451 L 271 451 L 271 486 L 117 486 Z M 117 451 "/>
</clipPath>
<clipPath id="clip4">
  <path d="M 106 442 L 291 442 L 291 507 L 106 507 Z M 106 442 "/>
</clipPath>
<clipPath id="clip5">
  <path d="M 0 441 L 287 441 L 287 512 L 0 512 Z M 0 441 "/>
</clipPath>
<clipPath id="clip6">
  <path d="M 339 421 L 378 421 L 378 448 L 339 448 Z M 339 421 "/>
</clipPath>
<clipPath id="clip7">
  <path d="M 314 420 L 502 420 L 502 565 L 314 565 Z M 314 420 "/>
</clipPath>
<clipPath id="clip8">
  <path d="M 358 419 L 394 419 L 394 423 L 358 423 Z M 358 419 "/>
</clipPath>
<clipPath id="clip9">
  <path d="M 302 422 L 521 422 L 521 519 L 302 519 Z M 302 422 "/>
</clipPath>
<clipPath id="clip10">
  <path d="M 170 452 L 269 452 L 269 484 L 170 484 Z M 170 452 "/>
</clipPath>
<clipPath id="clip11">
  <path d="M 189 441 L 290 441 L 290 481 L 189 481 Z M 189 441 "/>
</clipPath>
<clipPath id="clip12">
  <path d="M 355 383 L 376 383 L 376 436 L 355 436 Z M 355 383 "/>
</clipPath>
<clipPath id="clip13">
  <path d="M 257 384 L 391 384 L 391 466 L 257 466 Z M 257 384 "/>
</clipPath>
<clipPath id="clip14">
  <path d="M 372 431 L 379 431 L 379 450 L 372 450 Z M 372 431 "/>
</clipPath>
<clipPath id="clip15">
  <path d="M 372 430 L 424 430 L 424 646 L 372 646 Z M 372 430 "/>
</clipPath>
<clipPath id="clip16">
  <path d="M 351 276 L 407 276 L 407 492 L 351 492 Z M 351 276 "/>
</clipPath>
<clipPath id="clip17">
  <path d="M 353 276 L 409 276 L 409 491 L 353 491 Z M 353 276 "/>
</clipPath>
<clipPath id="clip18">
  <path d="M 329 414 L 384 414 L 384 442 L 329 442 Z M 329 414 "/>
</clipPath>
<clipPath id="clip19">
  <path d="M 357 415 L 501 415 L 501 461 L 357 461 Z M 357 415 "/>
</clipPath>
<clipPath id="clip20">
  <path d="M 354 377 L 377 377 L 377 438 L 354 438 Z M 354 377 "/>
</clipPath>
<clipPath id="clip21">
  <path d="M 256 378 L 411 378 L 411 466 L 256 466 Z M 256 378 "/>
</clipPath>
<clipPath id="clip22">
  <path d="M 385 422 L 411 422 L 411 451 L 385 451 Z M 385 422 "/>
</clipPath>
<clipPath id="clip23">
  <path d="M 406 437 L 546 437 L 546 623 L 406 623 Z M 406 437 "/>
</clipPath>
<clipPath id="clip24">
  <path d="M 405 419 L 539 419 L 539 450 L 405 450 Z M 405 419 "/>
</clipPath>
<clipPath id="clip25">
  <path d="M 404 421 L 539 421 L 539 453 L 404 453 Z M 404 421 "/>
</clipPath>
<clipPath id="clip26">
  <path d="M 368 416 L 413 416 L 413 446 L 368 446 Z M 368 416 "/>
</clipPath>
<clipPath id="clip27">
  <path d="M 342 0 L 413 0 L 413 439 L 342 439 Z M 342 0 "/>
</clipPath>
<clipPath id="clip28">
  <path d="M 512 436 L 516 436 L 516 452 L 512 452 Z M 512 436 "/>
</clipPath>
<clipPath id="clip29">
  <path d="M 480 417 L 515 417 L 515 468 L 480 468 Z M 480 417 "/>
</clipPath>
<clipPath id="clip30">
  <path d="M 497 417 L 515 417 L 515 496 L 497 496 Z M 497 417 "/>
</clipPath>
<clipPath id="clip31">
  <path d="M 512 447 L 521 447 L 521 456 L 512 456 Z M 512 447 "/>
</clipPath>
<clipPath id="clip32">
  <path d="M 509 207 L 1024 207 L 1024 558 L 509 558 Z M 509 207 "/>
</clipPath>
<clipPath id="clip33">
  <path d="M 512 437 L 516 437 L 516 454 L 512 454 Z M 512 437 "/>
</clipPath>
</defs>
<g id="surface1">
<g clip-path="url(#clip1)" clip-rule="nonzero">
<path style="fill:none;stroke-width:1;stroke-linecap:butt;stroke-linejoin:miter;stroke:rgb(0%,0%,0%);stroke-opacity:1;stroke-miterlimit:10;" d="M 355.382813 224.398438 L 360.964844 225.621094 L 364.484375 227.003906 L 366.734375 228.601563 L 368.871094 231.425781 L 370.578125 235.4375 L 370.8125 238.273438 L 370.183594 240.832031 L 369.234375 243.484375 L 368.601563 245.03125 " transform="matrix(1,0,0,-1,0,646)"/>
</g>
<g clip-path="url(#clip2)" clip-rule="nonzero">
<path style="fill:none;stroke-width:1;stroke-linecap:butt;stroke-linejoin:miter;stroke:rgb(0%,0%,0%);stroke-opacity:1;stroke-miterlimit:10;" d="M 322.542969 218.910156 L 332.90625 221.804688 L 339.589844 222.886719 L 347.277344 222.5625 L 354.957031 220.835938 L 360.777344 218.335938 L 367.453125 212.308594 L 371.921875 206.804688 L 376.746094 200.683594 L 381.925781 192.554688 L 389.242188 181.21875 L 394.425781 172.886719 L 398.269531 166.648438 L 400.65625 161.023438 L 402.242188 156.425781 L 412.472656 156.816406 L 410.617188 162.539063 L 407.144531 165.996094 L 404.210938 168.976563 L 402.417969 172.796875 L 399.453125 178.066406 L 375.230469 222.957031 " transform="matrix(1,0,0,-1,0,646)"/>
</g>
<g clip-path="url(#clip3)" clip-rule="nonzero">
<path style="fill:none;stroke-width:1;stroke-linecap:butt;stroke-linejoin:miter;stroke:rgb(0%,0%,0%);stroke-opacity:1;stroke-miterlimit:10;" d="M 118.03125 162.566406 L 125.265625 162 L 135.855469 161.90625 L 148.144531 162.660156 L 178.695313 164.625 L 199.46875 167.296875 L 216.554688 173.15625 L 239.714844 182.675781 L 269 193.792969 " transform="matrix(1,0,0,-1,0,646)"/>
</g>
<g clip-path="url(#clip4)" clip-rule="nonzero">
<path style="fill:none;stroke-width:1;stroke-linecap:butt;stroke-linejoin:miter;stroke:rgb(0%,0%,0%);stroke-opacity:1;stroke-miterlimit:10;" d="M 107.199219 163.484375 L 122.261719 160.460938 L 142.808594 160.367188 L 158.011719 160.902344 L 169.257813 161.816406 L 176.125 161.800781 L 181.039063 161.894531 L 186.125 161.476563 L 188.796875 158.890625 L 190.546875 155.644531 L 191.476563 140.65625 L 265.550781 142.726563 L 267.707031 168.054688 L 268.890625 181.417969 L 269.390625 187.550781 L 270.5625 191.34375 L 272.898438 193.082031 L 289.726563 202.515625 " transform="matrix(1,0,0,-1,0,646)"/>
</g>
<g clip-path="url(#clip5)" clip-rule="nonzero">
<path style="fill:none;stroke-width:1;stroke-linecap:butt;stroke-linejoin:miter;stroke:rgb(0%,0%,0%);stroke-opacity:1;stroke-miterlimit:10;" d="M 285.484375 203.179688 L 269.492188 198.945313 L 266.550781 196.324219 L 264.917969 195.253906 L 267.453125 184.394531 L 266.996094 176.300781 L 265.152344 143.449219 L 28.839844 135.964844 L 28.703125 177.855469 L 28.226563 187.894531 L 24.707031 190.617188 L 21.457031 191.214844 L 16.21875 190.691406 L 0 186.664063 " transform="matrix(1,0,0,-1,0,646)"/>
</g>
<g clip-path="url(#clip6)" clip-rule="nonzero">
<path style="fill:none;stroke-width:1;stroke-linecap:butt;stroke-linejoin:miter;stroke:rgb(0%,0%,0%);stroke-opacity:1;stroke-miterlimit:10;" d="M 340.8125 223.023438 L 348.871094 223.199219 L 353.785156 221.460938 L 359.179688 218.964844 L 364.59375 215.890625 L 369.015625 210.625 L 373.242188 204.761719 L 376.78125 199.644531 " transform="matrix(1,0,0,-1,0,646)"/>
</g>
<g clip-path="url(#clip7)" clip-rule="nonzero">
<path style="fill:none;stroke-width:1;stroke-linecap:butt;stroke-linejoin:miter;stroke:rgb(0%,0%,0%);stroke-opacity:1;stroke-miterlimit:10;" d="M 315.746094 215.980469 L 334.945313 222.171875 L 346.453125 223.863281 L 357.058594 224.558594 L 395.097656 224.972656 L 407.207031 222.589844 L 420.378906 216.542969 L 439.324219 208.226563 L 451.144531 203.296875 L 465.4375 197.109375 L 474.332031 193.609375 L 482.449219 193 L 482.886719 193.019531 L 494.214844 192.902344 L 498.660156 191.539063 L 499.804688 187.457031 L 500.472656 159.828125 L 402.144531 156.347656 L 404.808594 147.542969 L 407.101563 137.730469 L 408.246094 110.667969 L 409.023438 98.207031 L 410.324219 91.179688 L 413.363281 82.78125 " transform="matrix(1,0,0,-1,0,646)"/>
</g>
<g clip-path="url(#clip8)" clip-rule="nonzero">
<path style="fill:none;stroke-width:1;stroke-linecap:butt;stroke-linejoin:miter;stroke:rgb(0%,0%,0%);stroke-opacity:1;stroke-miterlimit:10;" d="M 359.722656 224.148438 L 392.828125 225.03125 " transform="matrix(1,0,0,-1,0,646)"/>
</g>
<g clip-path="url(#clip9)" clip-rule="nonzero">
<path style="fill:none;stroke-width:1;stroke-linecap:butt;stroke-linejoin:miter;stroke:rgb(0%,0%,0%);stroke-opacity:1;stroke-miterlimit:10;" d="M 303.964844 209.859375 L 329.746094 221.453125 L 340.054688 222.613281 L 347.386719 222.613281 L 358.417969 219.1875 L 366.210938 213.769531 L 371.386719 207.800781 L 380.136719 194.722656 L 390.683594 178.875 L 395.527344 171.832031 L 400.765625 161.542969 L 402.683594 155.539063 L 404.960938 146.308594 L 406.527344 138.054688 L 407.476563 128.359375 L 514.703125 132.273438 L 519.175781 135.359375 L 515.597656 142.238281 L 513.308594 149.570313 L 512.445313 157.214844 L 512.371094 166.625 L 512.6875 178.082031 L 513.453125 187.394531 L 514.285156 194.183594 L 516.304688 196.40625 " transform="matrix(1,0,0,-1,0,646)"/>
</g>
<g clip-path="url(#clip10)" clip-rule="nonzero">
<path style="fill:none;stroke-width:1;stroke-linecap:butt;stroke-linejoin:miter;stroke:rgb(0%,0%,0%);stroke-opacity:1;stroke-miterlimit:10;" d="M 171.765625 163.023438 L 192.339844 165.34375 L 202.628906 166.898438 L 213.019531 170.695313 L 227.835938 177.023438 L 252.070313 186.578125 L 267.050781 192.132813 " transform="matrix(1,0,0,-1,0,646)"/>
</g>
<g clip-path="url(#clip11)" clip-rule="nonzero">
<path style="fill:none;stroke-width:1;stroke-linecap:butt;stroke-linejoin:miter;stroke:rgb(0%,0%,0%);stroke-opacity:1;stroke-miterlimit:10;" d="M 288.601563 203.875 L 247.933594 186.886719 L 208.554688 170.832031 L 199.558594 168.285156 L 190.132813 166.726563 " transform="matrix(1,0,0,-1,0,646)"/>
</g>
<g clip-path="url(#clip12)" clip-rule="nonzero">
<path style="fill:none;stroke-width:1;stroke-linecap:butt;stroke-linejoin:miter;stroke:rgb(0%,0%,0%);stroke-opacity:1;stroke-miterlimit:10;" d="M 356.445313 261.246094 L 357.070313 252.3125 L 359.390625 243.328125 L 362.734375 235.203125 L 374.640625 211.644531 " transform="matrix(1,0,0,-1,0,646)"/>
</g>
<g clip-path="url(#clip13)" clip-rule="nonzero">
<path style="fill:none;stroke-width:1;stroke-linecap:butt;stroke-linejoin:miter;stroke:rgb(0%,0%,0%);stroke-opacity:1;stroke-miterlimit:10;" d="M 354.652344 260.125 L 354.691406 254.53125 L 354.679688 248.738281 L 354.390625 242.929688 L 352.988281 237.316406 L 351.003906 234.730469 L 345.042969 231.226563 L 335.761719 228.195313 L 327.460938 224.449219 L 315.191406 217.792969 L 290.285156 205.886719 L 279.960938 201.6875 L 268.316406 197.902344 L 264.960938 194.738281 L 266.117188 183.335938 L 263.566406 181.257813 L 259.570313 181.492188 L 258.171875 184.546875 L 259.203125 187.582031 L 263.335938 189.457031 L 268.765625 192.433594 L 288.296875 201.246094 L 319.089844 216.730469 L 327.421875 220.429688 L 334.527344 221.785156 L 342.066406 222.605469 L 348.96875 221.972656 L 358.664063 218.785156 L 366.4375 212.5625 L 374.152344 204.554688 L 380.007813 195.519531 L 384.714844 188.8125 L 389.703125 183.191406 " transform="matrix(1,0,0,-1,0,646)"/>
</g>
<g clip-path="url(#clip14)" clip-rule="nonzero">
<path style="fill:none;stroke-width:1;stroke-linecap:butt;stroke-linejoin:miter;stroke:rgb(0%,0%,0%);stroke-opacity:1;stroke-miterlimit:10;" d="M 373.898438 213.808594 L 375.300781 209.125 L 376.070313 205.304688 L 376.453125 200.988281 L 377.277344 197.308594 " transform="matrix(1,0,0,-1,0,646)"/>
</g>
<g clip-path="url(#clip15)" clip-rule="nonzero">
<path style="fill:none;stroke-width:1;stroke-linecap:butt;stroke-linejoin:miter;stroke:rgb(0%,0%,0%);stroke-opacity:1;stroke-miterlimit:10;" d="M 373.8125 214.058594 L 384.859375 193.546875 L 394.964844 176.078125 L 401.746094 164.789063 L 406.261719 153.480469 L 408.941406 141.199219 L 409.328125 125.804688 L 409.816406 103.535156 L 408.960938 94.539063 L 409.136719 88.269531 L 411.554688 81.355469 L 414.3125 76.445313 L 416.808594 69.515625 L 416.511719 62.917969 L 409.460938 44.910156 L 404.152344 28.082031 L 401.53125 17.71875 L 401.296875 8.074219 L 412.332031 7.988281 L 413.664063 5.636719 L 414.476563 3.058594 L 412.628906 0.4375 L 410.101563 0 L 407.25 1.304688 L 405.851563 5.78125 L 405.949219 17.015625 L 408.761719 29.730469 L 410.832031 38.316406 L 416.71875 52.316406 L 421.832031 62.875 L 422.777344 72.246094 L 422.242188 77.269531 L 420.765625 85.179688 L 420.714844 85.617188 L 416.574219 95.183594 L 414.171875 102.121094 L 412.503906 147.375 L 412.222656 156.558594 " transform="matrix(1,0,0,-1,0,646)"/>
</g>
<g clip-path="url(#clip16)" clip-rule="nonzero">
<path style="fill:none;stroke-width:1;stroke-linecap:butt;stroke-linejoin:miter;stroke:rgb(0%,0%,0%);stroke-opacity:1;stroke-miterlimit:10;" d="M 352.828125 368.882813 L 353.617188 350.527344 L 354.070313 339.90625 L 355.910156 286.953125 L 357.363281 255.746094 L 361.804688 238.84375 L 374.796875 212.386719 L 387.519531 187.898438 L 396.726563 173.113281 L 401.53125 165.351563 L 405.707031 155.671875 " transform="matrix(1,0,0,-1,0,646)"/>
</g>
<g clip-path="url(#clip17)" clip-rule="nonzero">
<path style="fill:none;stroke-width:1;stroke-linecap:butt;stroke-linejoin:miter;stroke:rgb(0%,0%,0%);stroke-opacity:1;stroke-miterlimit:10;" d="M 407.933594 156.660156 L 403.773438 166.964844 L 388.726563 197.550781 L 372.539063 228.515625 L 360.097656 254.828125 L 358.953125 260.976563 L 354.921875 368.292969 " transform="matrix(1,0,0,-1,0,646)"/>
</g>
<g clip-path="url(#clip18)" clip-rule="nonzero">
<path style="fill:none;stroke-width:1;stroke-linecap:butt;stroke-linejoin:miter;stroke:rgb(0%,0%,0%);stroke-opacity:1;stroke-miterlimit:10;" d="M 382.800781 205.757813 L 378.945313 211.226563 L 374.070313 220.519531 L 369.523438 225.851563 L 366.171875 228.328125 L 361.394531 229.945313 L 355.230469 230.480469 L 348.09375 229.882813 L 342.5 229.054688 L 336.886719 227.660156 L 330.621094 225.105469 " transform="matrix(1,0,0,-1,0,646)"/>
</g>
<g clip-path="url(#clip19)" clip-rule="nonzero">
<path style="fill:none;stroke-width:1;stroke-linecap:butt;stroke-linejoin:miter;stroke:rgb(0%,0%,0%);stroke-opacity:1;stroke-miterlimit:10;" d="M 392.539063 191.777344 L 389.917969 196.796875 L 388.113281 200.960938 L 386.1875 206.140625 L 385.769531 209.785156 L 386.5 213.453125 L 388.007813 216.78125 L 390.402344 219.246094 L 394.351563 220.902344 L 397.109375 222.011719 L 401.089844 222.109375 L 405.617188 221.097656 L 414.230469 218.339844 L 444.027344 204.972656 L 462.476563 197.722656 L 472.960938 194.359375 L 497.5 192.9375 L 499.425781 192.445313 L 499.484375 187.59375 L 483.042969 186.792969 L 482.6875 197.363281 L 474.875 199.152344 L 469.371094 200.140625 L 462.730469 201.878906 L 447.773438 207.511719 L 436.175781 212.90625 L 412.753906 223.277344 L 401.191406 227.492188 L 389.5625 229.285156 L 380.488281 229.066406 L 358.617188 229.734375 " transform="matrix(1,0,0,-1,0,646)"/>
</g>
<g clip-path="url(#clip20)" clip-rule="nonzero">
<path style="fill:none;stroke-width:1;stroke-linecap:butt;stroke-linejoin:miter;stroke:rgb(0%,0%,0%);stroke-opacity:1;stroke-miterlimit:10;" d="M 355.863281 267.707031 L 357 252.761719 L 361.171875 239.9375 L 366.902344 228.253906 L 375.558594 209.082031 " transform="matrix(1,0,0,-1,0,646)"/>
</g>
<g clip-path="url(#clip21)" clip-rule="nonzero">
<path style="fill:none;stroke-width:1;stroke-linecap:butt;stroke-linejoin:miter;stroke:rgb(0%,0%,0%);stroke-opacity:1;stroke-miterlimit:10;" d="M 354.808594 266.015625 L 355.269531 252.121094 L 354.359375 239.511719 L 349.515625 233.207031 L 341.785156 229.949219 L 325.335938 222.6875 L 287.507813 203.855469 L 279.070313 201.292969 L 268.382813 197.59375 L 265.277344 194.222656 L 266.160156 187.113281 L 266.679688 183.613281 L 262.621094 181.195313 L 259.128906 182.1875 L 257.964844 185.324219 L 260.46875 188 L 270.367188 192.285156 L 301.273438 207.246094 L 323.804688 218.773438 L 332.414063 222.0625 L 347.546875 223.304688 L 362.242188 224.351563 L 376.679688 224.164063 L 388.652344 225.398438 L 401.640625 223.390625 L 409.152344 221.238281 " transform="matrix(1,0,0,-1,0,646)"/>
</g>
<g clip-path="url(#clip22)" clip-rule="nonzero">
<path style="fill:none;stroke-width:1;stroke-linecap:butt;stroke-linejoin:miter;stroke:rgb(0%,0%,0%);stroke-opacity:1;stroke-miterlimit:10;" d="M 390.359375 196.152344 L 387.15625 204.746094 L 386.078125 209.765625 L 386.605469 213.089844 L 389.167969 217.277344 L 391.882813 219.972656 L 396 221.847656 L 399.863281 222.089844 L 404.269531 221.976563 L 409.308594 220.921875 " transform="matrix(1,0,0,-1,0,646)"/>
</g>
<g clip-path="url(#clip23)" clip-rule="nonzero">
<path style="fill:none;stroke-width:1;stroke-linecap:butt;stroke-linejoin:miter;stroke:rgb(0%,0%,0%);stroke-opacity:1;stroke-miterlimit:10;" d="M 407.761719 24.785156 L 420.246094 57.671875 L 422.597656 68.589844 L 422.128906 76.582031 L 420.925781 82.574219 L 415.03125 99.785156 L 414.328125 104.171875 L 412.15625 156.84375 L 512.457031 161.222656 L 513.925781 193.066406 L 514.628906 194.121094 L 517.371094 196.683594 L 538.167969 205.886719 L 544.304688 207.359375 " transform="matrix(1,0,0,-1,0,646)"/>
</g>
<g clip-path="url(#clip24)" clip-rule="nonzero">
<path style="fill:none;stroke-width:1;stroke-linecap:butt;stroke-linejoin:miter;stroke:rgb(0%,0%,0%);stroke-opacity:1;stroke-miterlimit:10;" d="M 537.855469 208.851563 L 516.871094 199.9375 L 504.703125 197.203125 L 489.527344 197.113281 L 477.023438 198.1875 L 468.238281 199.703125 L 448.59375 206.199219 L 423.253906 217.507813 L 406.851563 225.011719 " transform="matrix(1,0,0,-1,0,646)"/>
</g>
<g clip-path="url(#clip25)" clip-rule="nonzero">
<path style="fill:none;stroke-width:1;stroke-linecap:butt;stroke-linejoin:miter;stroke:rgb(0%,0%,0%);stroke-opacity:1;stroke-miterlimit:10;" d="M 405.011719 223.558594 L 434.429688 210.3125 L 460.421875 199.570313 L 473.59375 195.3125 L 481.652344 194.382813 L 491.171875 194.726563 L 503.597656 194.875 L 513.550781 197.21875 L 537.082031 206.667969 " transform="matrix(1,0,0,-1,0,646)"/>
</g>
<g clip-path="url(#clip26)" clip-rule="nonzero">
<path style="fill:none;stroke-width:1;stroke-linecap:butt;stroke-linejoin:miter;stroke:rgb(0%,0%,0%);stroke-opacity:1;stroke-miterlimit:10;" d="M 411.546875 223.242188 L 400.796875 226.996094 L 392.328125 228.644531 L 386.882813 228.742188 L 380.375 228.445313 L 373.242188 225.398438 L 369.632813 221.980469 L 369.308594 216.480469 L 370.6875 210.8125 L 373.882813 205.367188 L 376.296875 201.738281 " transform="matrix(1,0,0,-1,0,646)"/>
</g>
<g clip-path="url(#clip27)" clip-rule="nonzero">
<path style="fill:none;stroke-width:1;stroke-linecap:butt;stroke-linejoin:miter;stroke:rgb(0%,0%,0%);stroke-opacity:1;stroke-miterlimit:10;" d="M 411.167969 223.886719 L 401.382813 227.9375 L 395.519531 230.128906 L 389.394531 231.195313 L 381.515625 233 L 375.984375 236.511719 L 371.785156 240.683594 L 367.300781 248.527344 L 361.789063 260.296875 L 358.214844 267.46875 L 348.648438 547.132813 L 346.386719 586.476563 L 347.914063 604.84375 L 355.710938 627.722656 L 356.40625 638.222656 L 356.6875 645.96875 L 348.292969 646 L 348.414063 633.5 L 348.527344 628.636719 L 348.546875 624.46875 L 347.550781 617.097656 L 345.640625 607.484375 L 343.71875 595.121094 L 343.660156 586.875 L 355.878906 266.109375 L 358.949219 246.476563 L 366.082031 230.445313 L 376.484375 208.652344 " transform="matrix(1,0,0,-1,0,646)"/>
</g>
<g clip-path="url(#clip28)" clip-rule="nonzero">
<path style="fill:none;stroke-width:1;stroke-linecap:butt;stroke-linejoin:miter;stroke:rgb(0%,0%,0%);stroke-opacity:1;stroke-miterlimit:10;" d="M 513.574219 208.949219 L 514.058594 201.546875 L 513.253906 195.453125 " transform="matrix(1,0,0,-1,0,646)"/>
</g>
<g clip-path="url(#clip29)" clip-rule="nonzero">
<path style="fill:none;stroke-width:1;stroke-linecap:butt;stroke-linejoin:miter;stroke:rgb(0%,0%,0%);stroke-opacity:1;stroke-miterlimit:10;" d="M 512.007813 179.746094 L 513.207031 187.976563 L 483.09375 186.5625 L 481.339844 220.914063 L 490.140625 221.464844 L 497.019531 221.167969 L 501.484375 219.871094 L 513.480469 220.089844 L 513.65625 227.867188 " transform="matrix(1,0,0,-1,0,646)"/>
</g>
<g clip-path="url(#clip30)" clip-rule="nonzero">
<path style="fill:none;stroke-width:1;stroke-linecap:butt;stroke-linejoin:miter;stroke:rgb(0%,0%,0%);stroke-opacity:1;stroke-miterlimit:10;" d="M 513.296875 227.507813 L 513.519531 208.667969 L 498.644531 208.332031 L 498.714844 197.828125 L 499.359375 187.898438 L 499.402344 178.144531 L 500.039063 159.847656 L 509.445313 159.898438 L 510.496094 151.820313 " transform="matrix(1,0,0,-1,0,646)"/>
</g>
<g clip-path="url(#clip31)" clip-rule="nonzero">
<path style="fill:none;stroke-width:1;stroke-linecap:butt;stroke-linejoin:miter;stroke:rgb(0%,0%,0%);stroke-opacity:1;stroke-miterlimit:10;" d="M 513.433594 191.019531 L 514.046875 194.078125 L 515.585938 195.777344 L 519.351563 197.230469 " transform="matrix(1,0,0,-1,0,646)"/>
</g>
<g clip-path="url(#clip32)" clip-rule="nonzero">
<path style="fill:none;stroke-width:1;stroke-linecap:butt;stroke-linejoin:miter;stroke:rgb(0%,0%,0%);stroke-opacity:1;stroke-miterlimit:10;" d="M 513.875 192.539063 L 513.953125 192.738281 L 515.007813 200.691406 L 514.652344 204.347656 L 514.339844 213.515625 L 513.941406 220.457031 L 514.210938 232.203125 L 515.546875 259.652344 L 515.332031 272.179688 L 515.164063 293.503906 L 514.816406 316.226563 L 513.898438 346.140625 L 512.128906 379.082031 L 511.25 396.515625 L 510.785156 409.9375 L 511.199219 435.351563 L 512.304688 436.433594 L 549.246094 437.414063 L 556.765625 437.839844 L 582.363281 436.023438 L 601.089844 436.027344 L 638.042969 436.902344 L 688.953125 435.546875 L 889.226563 434.066406 L 937.261719 433.402344 L 976.816406 432.289063 L 995.058594 432.042969 L 1003.109375 431.515625 L 1007.449219 431.75 L 1015.65625 434.9375 L 1019.699219 434.667969 L 1022.558594 432.738281 L 1024 428.546875 L 1022.695313 420.023438 L 1020.570313 413.320313 L 1007.203125 397.96875 L 1004.324219 393.710938 L 1002.488281 387.703125 L 1001.980469 382.074219 L 1003.632813 372.894531 L 1004.878906 319.859375 L 997.953125 308.902344 L 984.929688 295.460938 L 976.808594 287.644531 L 975.015625 280.835938 L 979.347656 89.75 " transform="matrix(1,0,0,-1,0,646)"/>
</g>
<g clip-path="url(#clip33)" clip-rule="nonzero">
<path style="fill:none;stroke-width:1;stroke-linecap:butt;stroke-linejoin:miter;stroke:rgb(0%,0%,0%);stroke-opacity:1;stroke-miterlimit:10;" d="M 513.148438 193.882813 L 514.40625 201.035156 L 514.328125 207.378906 " transform="matrix(1,0,0,-1,0,646)"/>
</g>
</g>
</svg>
